<?xml version="1.0" encoding="UTF-8"?>
<svg width="161px" height="32px" viewBox="0 0 161 32" version="1.1" xmlns="http://www.w3.org/2000/svg" xmlns:xlink="http://www.w3.org/1999/xlink">
    <!-- Generator: Sketch 63 (92445) - https://sketch.com -->
    <title>编组 29</title>
    <desc>Created with Sketch.</desc>
    <defs>
        <path d="M6.56,28 L6.56,22.3693304 C6.56,21.9226698 6.70951784,21.4888638 6.98472196,21.1370565 L8.61123592,19.0578015 C9.29180204,18.1877995 10.5487859,18.0342313 11.4187879,18.7147974 C11.6215259,18.8733909 11.7917441,19.0696285 11.9201009,19.2927408 L17.5031654,28.9973346 C17.8600269,29.6176384 18.521122,30 19.2367523,30 L21.34,30 C22.3660484,30 23.1978249,29.1682235 23.1978249,28.1421751 C23.1978249,27.8089784 23.1082161,27.4819137 22.9383867,27.1952467 L14.6537913,13.2110989 C14.2351443,12.5044353 14.2911124,11.6136562 14.794918,10.9649507 L21.0003917,2.97471684 C21.5410017,2.2786217 21.4149561,1.27607413 20.7188609,0.735464166 C20.4388886,0.518028601 20.0944894,0.4 19.74,0.4 L17.4621898,0.4 C16.8427306,0.4 16.2582348,0.687042917 15.8795114,1.17724533 L8.35133921,10.9213714 C8.01368483,11.358416 7.38566724,11.4389877 6.94862266,11.1013333 C6.70352146,10.9119716 6.56,10.6197237 6.56,10.3099941 L6.56,2.4 C6.56,1.2954305 5.6645695,0.4 4.56,0.4 L2.64,0.4 C1.5354305,0.4 0.64,1.2954305 0.64,2.4 L0.64,28 C0.64,29.1045695 1.5354305,30 2.64,30 L4.56,30 C5.6645695,30 6.56,29.1045695 6.56,28 Z" id="path-1"></path>
        <filter x="-100.0%" y="-100.0%" width="300.0%" height="300.0%" filterUnits="objectBoundingBox" id="filter-3">
            <feGaussianBlur stdDeviation="6" in="SourceGraphic"></feGaussianBlur>
        </filter>
        <path d="M18.6,27.6 L18.6,26.64 C18.6,25.5354305 17.7045695,24.64 16.6,24.64 L7.92,24.64 C6.8154305,24.64 5.92,23.7445695 5.92,22.64 L5.92,18.72 C5.92,17.6154305 6.8154305,16.72 7.92,16.72 L14.32,16.72 C15.4245695,16.72 16.32,15.8245695 16.32,14.72 L16.32,13.76 C16.32,12.6554305 15.4245695,11.76 14.32,11.76 L7.92,11.76 C6.8154305,11.76 5.92,10.8645695 5.92,9.76 L5.92,6.92 C5.92,5.8154305 6.8154305,4.92 7.92,4.92 L16.16,4.92 C17.2645695,4.92 18.16,4.0245695 18.16,2.92 L18.16,2 C18.16,0.8954305 17.2645695,-4.63881839e-14 16.16,-4.61852778e-14 L2,-4.61852778e-14 C0.8954305,-4.64264609e-14 1.84605841e-13,0.8954305 1.84741111e-13,2 L1.84741111e-13,27.6 C1.84876382e-13,28.7045695 0.8954305,29.6 2,29.6 L16.6,29.6 C17.7045695,29.6 18.6,28.7045695 18.6,27.6 Z" id="path-4"></path>
        <filter x="-100.0%" y="-100.0%" width="300.0%" height="300.0%" filterUnits="objectBoundingBox" id="filter-6">
            <feGaussianBlur stdDeviation="6" in="SourceGraphic"></feGaussianBlur>
        </filter>
        <path d="M18.6,28 L18.6,27.04 C18.6,25.9354305 17.7045695,25.04 16.6,25.04 L7.92,25.04 C6.8154305,25.04 5.92,24.1445695 5.92,23.04 L5.92,19.12 C5.92,18.0154305 6.8154305,17.12 7.92,17.12 L14.32,17.12 C15.4245695,17.12 16.32,16.2245695 16.32,15.12 L16.32,14.16 C16.32,13.0554305 15.4245695,12.16 14.32,12.16 L7.92,12.16 C6.8154305,12.16 5.92,11.2645695 5.92,10.16 L5.92,7.32 C5.92,6.2154305 6.8154305,5.32 7.92,5.32 L16.16,5.32 C17.2645695,5.32 18.16,4.4245695 18.16,3.32 L18.16,2.4 C18.16,1.2954305 17.2645695,0.4 16.16,0.4 L2,0.4 C0.8954305,0.4 -1.3527075e-16,1.2954305 0,2.4 L0,28 C1.3527075e-16,29.1045695 0.8954305,30 2,30 L16.6,30 C17.7045695,30 18.6,29.1045695 18.6,28 Z" id="path-7"></path>
        <filter x="-100.0%" y="-100.0%" width="300.0%" height="300.0%" filterUnits="objectBoundingBox" id="filter-9">
            <feGaussianBlur stdDeviation="6" in="SourceGraphic"></feGaussianBlur>
        </filter>
        <path d="M5.6,27.6 L5.6,17.72 L5.6,17.72 C5.6,16.0697408 5.50812209,13.7975388 5.32436627,10.9033941 C5.30128979,10.5396131 5.57746747,10.2259875 5.9412471,10.2028903 C6.21134479,10.1857412 6.46453925,10.3352232 6.58,10.58 L8.05666019,13.7105196 C8.07221716,13.7435004 8.08867321,13.7760495 8.10600989,13.8081305 L16.0730341,28.5508482 C16.4223213,29.1971927 17.0978621,29.6 17.8325476,29.6 L20.64,29.6 C21.7445695,29.6 22.64,28.7045695 22.64,27.6 L22.64,2 C22.64,0.8954305 21.7445695,-4.63881839e-14 20.64,-4.61852778e-14 L19.04,-4.61852778e-14 C17.9354305,-4.59823717e-14 17.04,0.8954305 17.04,2 L17.04,11.8 L17.04,11.8 C17.04,13.4357226 17.1395383,15.7184438 17.3386148,18.6481637 C17.3625265,19.0005754 17.0962547,19.3056721 16.7438454,19.3296185 C16.4793958,19.3475881 16.231266,19.200575 16.12,18.96 L14.6678517,15.8202199 C14.649289,15.7800843 14.6294003,15.7405755 14.6082184,15.7017584 L6.60859509,1.04198356 C6.25807557,0.399636155 5.58473523,-4.58756109e-14 4.85297426,-4.61852778e-14 L2,-4.61852778e-14 C0.8954305,-4.59823717e-14 -2.8457441e-13,0.8954305 -2.84217094e-13,2 L-2.84217094e-13,27.6 C-2.84081824e-13,28.7045695 0.8954305,29.6 2,29.6 L3.6,29.6 C4.7045695,29.6 5.6,28.7045695 5.6,27.6 Z" id="path-10"></path>
        <filter x="-83.3%" y="-83.3%" width="266.7%" height="266.7%" filterUnits="objectBoundingBox" id="filter-12">
            <feGaussianBlur stdDeviation="5" in="SourceGraphic"></feGaussianBlur>
        </filter>
        <path d="M13.24,0.84 C21.08,0.84 26.48,6.48 26.48,16.08 C26.48,25.68 21.08,31.56 13.24,31.56 C5.4,31.56 4.54747351e-13,25.68 4.54747351e-13,16.08 C4.54747351e-13,6.44 5.4,0.84 13.24,0.84 Z M13.24,5.92 C8.84,5.92 6.04,9.72 6.04,16.08 C6.04,22.4 8.84,26.44 13.24,26.44 C17.64,26.44 20.44,22.4 20.44,16.08 C20.44,9.72 17.64,5.92 13.24,5.92 Z" id="path-13"></path>
        <filter x="-100.0%" y="-100.0%" width="300.0%" height="300.0%" filterUnits="objectBoundingBox" id="filter-15">
            <feGaussianBlur stdDeviation="6" in="SourceGraphic"></feGaussianBlur>
        </filter>
        <path d="M5.6,27.6 L5.6,17.72 L5.6,17.72 C5.6,16.0697408 5.50812209,13.7975388 5.32436627,10.9033941 C5.30128979,10.5396131 5.57746747,10.2259875 5.9412471,10.2028903 C6.21134479,10.1857412 6.46453925,10.3352232 6.58,10.58 L8.05666019,13.7105196 C8.07221716,13.7435004 8.08867321,13.7760495 8.10600989,13.8081305 L16.0730341,28.5508482 C16.4223213,29.1971927 17.0978621,29.6 17.8325476,29.6 L20.64,29.6 C21.7445695,29.6 22.64,28.7045695 22.64,27.6 L22.64,2 C22.64,0.8954305 21.7445695,-4.63881839e-14 20.64,-4.61852778e-14 L19.04,-4.61852778e-14 C17.9354305,-4.79444813e-14 17.04,0.8954305 17.04,2 L17.04,11.8 L17.04,11.8 C17.04,13.4357226 17.1395383,15.7184438 17.3386148,18.6481637 C17.3625265,19.0005754 17.0962547,19.3056721 16.7438454,19.3296185 C16.4793958,19.3475881 16.231266,19.200575 16.12,18.96 L14.6678517,15.8202199 C14.649289,15.7800843 14.6294003,15.7405755 14.6082184,15.7017584 L6.60859509,1.04198356 C6.25807557,0.399636155 5.58473523,-4.63197001e-14 4.85297426,-4.61852778e-14 L2,-4.61852778e-14 C0.8954305,-4.62044163e-14 1.41973276e-13,0.8954305 1.42108547e-13,2 L1.42108547e-13,27.6 C1.42243818e-13,28.7045695 0.8954305,29.6 2,29.6 L3.6,29.6 C4.7045695,29.6 5.6,28.7045695 5.6,27.6 Z" id="path-16"></path>
        <filter x="-100.0%" y="-100.0%" width="300.0%" height="300.0%" filterUnits="objectBoundingBox" id="filter-18">
            <feGaussianBlur stdDeviation="6" in="SourceGraphic"></feGaussianBlur>
        </filter>
    </defs>
    <g id="页面-1" stroke="none" stroke-width="1" fill="none" fill-rule="evenodd">
        <g id="密码登录" transform="translate(-163.000000, -54.000000)">
            <g id="编组-28" transform="translate(163.000000, 54.000000)">
                <rect id="矩形" x="0" y="0" width="162" height="32"></rect>
                <g id="编组-29">
                    <g id="椭圆形" transform="translate(0.000000, 1.000000)">
                        <g>
                            <mask id="mask-2" fill="white">
                                <use xlink:href="#path-1"></use>
                            </mask>
                            <use id="蒙版" fill="#3E69FF" fill-rule="nonzero" xlink:href="#path-1"></use>
                            <circle fill="#FFFFFF" opacity="0.623511905" filter="url(#filter-3)" mask="url(#mask-2)" cx="-1" cy="-2" r="9"></circle>
                        </g>
                    </g>
                    <g id="椭圆形" transform="translate(28.080000, 1.400000)">
                        <mask id="mask-5" fill="white">
                            <use xlink:href="#path-4"></use>
                        </mask>
                        <use id="蒙版" fill="#3E69FF" fill-rule="nonzero" xlink:href="#path-4"></use>
                        <circle fill="#FFFFFF" filter="url(#filter-6)" mask="url(#mask-5)" cx="12.92" cy="12.6" r="9"></circle>
                    </g>
                    <g id="椭圆形" transform="translate(52.680000, 1.000000)">
                        <mask id="mask-8" fill="white">
                            <use xlink:href="#path-7"></use>
                        </mask>
                        <use id="蒙版" fill="#3E69FF" fill-rule="nonzero" xlink:href="#path-7"></use>
                        <circle fill="#FFFFFF" opacity="0.623511905" filter="url(#filter-9)" mask="url(#mask-8)" cx="15.32" cy="0" r="9"></circle>
                    </g>
                    <g id="椭圆形" transform="translate(77.280000, 1.400000)">
                        <mask id="mask-11" fill="white">
                            <use xlink:href="#path-10"></use>
                        </mask>
                        <use id="蒙版" fill="#3E69FF" fill-rule="nonzero" xlink:href="#path-10"></use>
                        <circle fill="#FFFFFF" opacity="0.837820871" filter="url(#filter-12)" mask="url(#mask-11)" cx="20.72" cy="27.6" r="9"></circle>
                    </g>
                    <g id="椭圆形" transform="translate(105.760000, 0.000000)">
                        <mask id="mask-14" fill="white">
                            <use xlink:href="#path-13"></use>
                        </mask>
                        <use id="蒙版" fill="#3E69FF" fill-rule="nonzero" xlink:href="#path-13"></use>
                        <circle fill="#FFFFFF" opacity="0.623511905" filter="url(#filter-15)" mask="url(#mask-14)" cx="13.24" cy="3" r="9"></circle>
                    </g>
                    <g id="椭圆形" transform="translate(138.040000, 1.400000)">
                        <mask id="mask-17" fill="white">
                            <use xlink:href="#path-16"></use>
                        </mask>
                        <use id="蒙版" fill="#3E69FF" fill-rule="nonzero" xlink:href="#path-16"></use>
                        <circle fill="#FFFFFF" opacity="0.907063802" filter="url(#filter-18)" mask="url(#mask-17)" cx="5.96" cy="25.6" r="9"></circle>
                    </g>
                </g>
            </g>
        </g>
    </g>
</svg>